<svg xmlns="http://www.w3.org/2000/svg" xmlns:xlink="http://www.w3.org/1999/xlink" width="285pt" height="547pt" viewBox="0.00 0.00 214.00 410.00">
    <g id="graph0" class="graph" transform="scale(0.75 0.75) rotate(0) translate(4 406)">
        <title>G</title>
        <polygon fill="white" stroke="transparent" points="-4,4 -4,-406 210,-406 210,4 -4,4" />
         <!-- 140219671103616 -->
        <g id="node1" class="node">
            <title>140219671103616</title>
            <polygon fill="none" stroke="black" points="0,-365.5 0,-401.5 206,-401.5 206,-365.5 0,-365.5" />
            <text text-anchor="middle" x="103" y="-379.8" font-family="Times,serif" font-size="14.00">Input Layer</text>
        </g>
         <!-- 140219669902816 -->
        <g id="node2" class="node">
            <title>140219669902816</title>
            <polygon fill="none" stroke="black" points="39,-292.5 39,-328.5 167,-328.5 167,-292.5 39,-292.5" />
            <text text-anchor="middle" x="103" y="-306.8" font-family="Times,serif" font-size="14.00">Hidden Layer 1</text>
        </g>
         <!-- 140219671103616&#45;&gt;140219669902816 -->
        <g id="edge1" class="edge">
            <title>140219671103616-&gt;140219669902816</title>
            <path fill="none" stroke="black" d="M103,-365.31C103,-357.29 103,-347.55 103,-338.57" />
            <polygon fill="black" stroke="black" points="106.5,-338.53 103,-328.53 99.5,-338.53 106.5,-338.53" />
        </g>
         <!-- 140217939947136 -->
        <g id="node3" class="node">
            <title>140217939947136</title>
            <polygon fill="none" stroke="black" points="39,-219.5 39,-255.5 167,-255.5 167,-219.5 39,-219.5" />
            <text text-anchor="middle" x="103" y="-233.8" font-family="Times,serif" font-size="14.00">Hidden Layer 2</text>
        </g>
         <!-- 140219669902816&#45;&gt;140217939947136 -->
        <g id="edge2" class="edge">
            <title>140219669902816-&gt;140217939947136</title>
            <path fill="none" stroke="black" d="M103,-292.31C103,-284.29 103,-274.55 103,-265.57" />
            <polygon fill="black" stroke="black" points="106.5,-265.53 103,-255.53 99.5,-265.53 106.5,-265.53" />
        </g>
         <!-- 140217939642592 -->
        <g id="node4" class="node">
            <title>140217939642592</title>
            <polygon fill="none" stroke="black" points="39,-146.5 39,-182.5 167,-182.5 167,-146.5 39,-146.5" />
            <text text-anchor="middle" x="103" y="-160.8" font-family="Times,serif" font-size="14.00">Hidden Layer 3</text>
        </g>
         <!-- 140217939947136&#45;&gt;140217939642592 -->
        <g id="edge3" class="edge">
            <title>140217939947136-&gt;140217939642592</title>
            <path fill="none" stroke="black" d="M103,-219.31C103,-211.29 103,-201.55 103,-192.57" />
            <polygon fill="black" stroke="black" points="106.5,-192.53 103,-182.53 99.5,-192.53 106.5,-192.53" />
        </g>
         <!-- 140217939644032 -->
        <g id="node5" class="node">
            <title>140217939644032</title>
            <polygon fill="none" stroke="black" points="39,-73.5 39,-109.5 167,-109.5 167,-73.5 39,-73.5" />
            <text text-anchor="middle" x="103" y="-87.8" font-family="Times,serif" font-size="14.00">Hidden Layer 4</text>
        </g>
         <!-- 140217939642592&#45;&gt;140217939644032 -->
        <g id="edge4" class="edge">
            <title>140217939642592-&gt;140217939644032</title>
            <path fill="none" stroke="black" d="M103,-146.31C103,-138.29 103,-128.55 103,-119.57" />
            <polygon fill="black" stroke="black" points="106.5,-119.53 103,-109.53 99.5,-119.53 106.5,-119.53" />
        </g>
         <!-- 140217939797712 -->
        <g id="node6" class="node">
            <title>140217939797712</title>
            <polygon fill="none" stroke="black" points="39,-0.5 39,-36.5 167,-36.5 167,-0.5 39,-0.5" />
            <text text-anchor="middle" x="103" y="-14.8" font-family="Times,serif" font-size="14.00">Output Layer</text>
        </g>
         <!-- 140217939644032&#45;&gt;140217939797712 -->
        <g id="edge5" class="edge">
            <title>140217939644032-&gt;140217939797712</title>
            <path fill="none" stroke="black" d="M103,-73.31C103,-65.29 103,-55.55 103,-46.57" />
            <polygon fill="black" stroke="black" points="106.5,-46.53 103,-36.53 99.5,-46.53 106.5,-46.53" />
        </g>
    </g>
</svg>